# xmcd CD database file
# Copyright (C) 1993-1996 Ti Kan
#
# Track frame offsets:
# 182
# 12255
# 24980
# 35880
# 47312
# 59105
# 69810
# 81437
# 93590
# 104135
# 117055
# 128435
# 139560
# 150617
# 161317
# 173437
# 185120
# 196310
# 207120
# 219135
# 232112
# 243395
# 255462
# 266380
# 279197
# 293280
# 305682
# 319167
# 324267
#
# Disc length: 4514 seconds
#
# Revision: 0
# Processed by: cddbd v1.5.1PL0 Copyright (c) Steve Scherf et al.
# Submitted via: inCDius 1.1b5
#
DISCID=8711a01d
DTITLE=Jim Reeves - Gentleman Jim  Disc 1
DYEAR=1964
DGENRE=Country
TTITLE0=Mexican Joe
TTITLE1=Bimbo
TTITLE2=Then I'll Stop Loving You
TTITLE3=Penny Candy
TTITLE4=I'll Follow You
TTITLE5=Where Does A Broken Heart Go
TTITLE6=Give Me One More Kiss
TTITLE7=Shall We Gather At The River (Mother Went A-Walkin')
TTITLE8=Hillbilly Waltz
TTITLE9=Butterfly Love
TTITLE10=It's Hard To Love Just One
TTITLE11=Gypsy Heart
TTITLE12=Red Eyed And Rowdy
TTITLE13=Beatin' On The Ding Dong
TTITLE14=The Wilder Your Heart Beats (The Sweeter You Love)
TTITLE15=Are You The One
TTITLE16=El Rancho Del Rio
TTITLE17=Let Me Remember (Things I Can't Forget)
TTITLE18=How Many
TTITLE19=A Woman's Love
TTITLE20=Tahiti
TTITLE21=Padre Of Old San Antone
TTITLE22=My Rambling Heart
TTITLE23=Echo Banita
TTITLE24=Each Beat Of My Heart
TTITLE25=Let Me Love You Just A Little
TTITLE26=I Could Cry
TTITLE27=I'll Always Love You
TTITLE28=You're The Sweetest Thing
EXTD=
EXTT0=
EXTT1=
EXTT2=
EXTT3=
EXTT4=
EXTT5=
EXTT6=
EXTT7=
EXTT8=
EXTT9=
EXTT10=
EXTT11=
EXTT12=
EXTT13=
EXTT14=
EXTT15=
EXTT16=
EXTT17=
EXTT18=
EXTT19=
EXTT20=
EXTT21=
EXTT22=
EXTT23=
EXTT24=
EXTT25=
EXTT26=
EXTT27=
EXTT28=
PLAYORDER=
